<svg width="16" height="16" viewBox="0 0 16 16" fill="none" xmlns="http://www.w3.org/2000/svg">
<path d="M5 2.28125H9.25C9.81226 2.28145 10.3629 2.44126 10.8379 2.74219C11.3128 3.04315 11.6923 3.47312 11.9326 3.98145C12.1729 4.48986 12.2643 5.05617 12.1953 5.61426C12.1263 6.17233 11.8998 6.6992 11.543 7.13379L11.5195 7.16309L11.5527 7.18066C12.1778 7.52523 12.6701 8.06841 12.9531 8.72363C13.2362 9.37903 13.294 10.1103 13.1162 10.8018C12.9384 11.493 12.5356 12.1054 11.9717 12.543C11.4076 12.9805 10.7139 13.2184 10 13.2188H5C4.80938 13.2188 4.62698 13.1426 4.49219 13.0078C4.3574 12.873 4.28125 12.6906 4.28125 12.5V3C4.28125 2.80938 4.3574 2.62698 4.49219 2.49219C4.62698 2.3574 4.80938 2.28125 5 2.28125ZM5.71875 11.7812H10C10.4724 11.7812 10.9257 11.5938 11.2598 11.2598C11.5938 10.9257 11.7812 10.4724 11.7812 10C11.7812 9.52758 11.5938 9.07428 11.2598 8.74023C10.9257 8.40618 10.4724 8.21875 10 8.21875H5.71875V11.7812ZM5.71875 6.78125H9.25C9.65611 6.78125 10.0458 6.62017 10.333 6.33301C10.6202 6.04584 10.7812 5.65611 10.7812 5.25C10.7812 4.84389 10.6202 4.45416 10.333 4.16699C10.0458 3.87983 9.65611 3.71875 9.25 3.71875H5.71875V6.78125Z" fill="black" stroke="black" stroke-width="0.0625"/>
</svg>
