<svg width="16" height="16" viewBox="0 0 16 16" fill="none" xmlns="http://www.w3.org/2000/svg">
<path d="M11.0498 10.1332C11.1102 10.1934 11.1581 10.2649 11.1908 10.3436C11.2235 10.4224 11.2403 10.5068 11.2403 10.5921C11.2403 10.6773 11.2235 10.7618 11.1908 10.8405C11.1581 10.9193 11.1102 10.9908 11.0498 11.051L8.45834 13.6424C8.39815 13.7028 8.32663 13.7507 8.24789 13.7834C8.16914 13.8161 8.08471 13.833 7.99944 13.833C7.91418 13.833 7.82975 13.8161 7.751 13.7834C7.67225 13.7507 7.60073 13.7028 7.54054 13.6424L4.94912 11.051C4.82741 10.9293 4.75903 10.7642 4.75903 10.5921C4.75903 10.42 4.82741 10.2549 4.94912 10.1332C5.07082 10.0115 5.23589 9.9431 5.40801 9.9431C5.58013 9.9431 5.74521 10.0115 5.86691 10.1332L7.99998 12.2652L10.1331 10.1316C10.1933 10.0714 10.2649 10.0238 10.3436 9.99131C10.4223 9.95884 10.5066 9.94221 10.5917 9.94236C10.6769 9.94251 10.7612 9.95944 10.8397 9.99218C10.9183 10.0249 10.9897 10.0728 11.0498 10.1332ZM5.86691 5.86812L7.99998 3.73505L10.1331 5.86866C10.2548 5.99037 10.4198 6.05874 10.592 6.05874C10.7641 6.05874 10.9291 5.99037 11.0508 5.86866C11.1726 5.74695 11.2409 5.58188 11.2409 5.40976C11.2409 5.23764 11.1726 5.07257 11.0508 4.95086L8.45942 2.35943C8.39923 2.29904 8.32771 2.25111 8.24897 2.21841C8.17022 2.18572 8.08579 2.16888 8.00052 2.16888C7.91525 2.16888 7.83083 2.18572 7.75208 2.21841C7.67333 2.25111 7.60181 2.29904 7.54162 2.35943L4.9502 4.95086C4.82849 5.07257 4.76011 5.23764 4.76011 5.40976C4.76011 5.58188 4.82849 5.74695 4.9502 5.86866C5.0719 5.99037 5.23697 6.05874 5.40909 6.05874C5.58121 6.05874 5.74629 5.99037 5.86799 5.86866L5.86691 5.86812Z" fill="black"/>
</svg>
