<svg width="16" height="16" viewBox="0 0 16 16" fill="none" xmlns="http://www.w3.org/2000/svg">
<path d="M7 2.78125H12C12.1906 2.78125 12.373 2.8574 12.5078 2.99219C12.6426 3.12698 12.7188 3.30938 12.7188 3.5C12.7188 3.69062 12.6426 3.87302 12.5078 4.00781C12.373 4.1426 12.1906 4.21875 12 4.21875H10.0186L10.0107 4.24023L7.49707 11.7812H9C9.19062 11.7812 9.37302 11.8574 9.50781 11.9922C9.6426 12.127 9.71875 12.3094 9.71875 12.5C9.71875 12.6906 9.6426 12.873 9.50781 13.0078C9.37302 13.1426 9.19062 13.2188 9 13.2188H4C3.80938 13.2188 3.62698 13.1426 3.49219 13.0078C3.3574 12.873 3.28125 12.6906 3.28125 12.5C3.28125 12.3094 3.3574 12.127 3.49219 11.9922C3.62698 11.8574 3.80938 11.7812 4 11.7812H5.98145L5.98926 11.7598L8.50293 4.21875H7C6.80938 4.21875 6.62698 4.1426 6.49219 4.00781C6.3574 3.87302 6.28125 3.69062 6.28125 3.5C6.28125 3.30938 6.3574 3.12698 6.49219 2.99219C6.62698 2.8574 6.80938 2.78125 7 2.78125Z" fill="black" stroke="black" stroke-width="0.0625"/>
</svg>
