<svg width="16" height="16" viewBox="0 0 16 16" fill="none" xmlns="http://www.w3.org/2000/svg">
<path d="M9.25061 0.529327C9.44158 0.529327 9.62534 0.605229 9.76038 0.740265C9.89527 0.875214 9.97123 1.05825 9.97131 1.24905C9.97131 1.44002 9.89541 1.62378 9.76038 1.75882L7.04065 4.47757L7.01819 4.50003L11.9996 9.48148L12.0221 9.45999L14.7399 6.74124C14.8066 6.6743 14.886 6.62127 14.9733 6.58499C15.0606 6.54871 15.155 6.5303 15.2496 6.5303C15.3441 6.53036 15.4378 6.54877 15.525 6.58499C15.6123 6.62126 15.6917 6.6743 15.7584 6.74124C15.8254 6.80789 15.8783 6.88743 15.9147 6.97464C15.951 7.06206 15.9703 7.15634 15.9703 7.25101C15.9703 7.34559 15.9509 7.43905 15.9147 7.5264C15.8783 7.61382 15.8255 7.69399 15.7584 7.76077L12.8619 10.6563H12.861C12.7481 10.7698 12.6143 10.8606 12.4664 10.9219C12.3186 10.9832 12.1597 11.0141 11.9996 11.0137C11.863 11.0131 11.7273 10.9903 11.5983 10.9453L11.5797 10.9385L10.3619 12.1563C10.1334 12.3848 9.8228 12.5137 9.49963 12.5137C9.17653 12.5137 8.86681 12.3847 8.63831 12.1563L8.52209 12.0401L8.49963 12.0186L8.47815 12.0401L6.50842 14.0078C6.44167 14.0747 6.36228 14.1279 6.27502 14.1641C6.18779 14.2003 6.09407 14.2188 5.99963 14.2188C5.92259 14.2189 5.84607 14.2063 5.77307 14.1817L1.27307 12.6817L1.18811 12.6475C1.10571 12.6079 1.03145 12.5523 0.96936 12.4844C0.886749 12.3941 0.828612 12.2842 0.800415 12.1651C0.772231 12.0459 0.77486 11.9215 0.808228 11.8037C0.841661 11.6859 0.904269 11.5779 0.990845 11.4912L4.45959 8.02249L4.48108 8.00003L4.45959 7.97855L4.34534 7.86136L4.26428 7.77249C4.08654 7.55561 3.98792 7.28289 3.98792 7.00003C3.98792 6.67687 4.11687 6.36725 4.34534 6.1387L5.56409 4.91995L5.55725 4.9014C5.48173 4.68523 5.46931 4.45182 5.52014 4.22855C5.57101 4.00525 5.68362 3.80086 5.84534 3.6387L8.74182 0.740265C8.87675 0.605334 9.0598 0.529445 9.25061 0.529327ZM5.47815 9.04007L2.86584 11.6504L2.82971 11.6866L2.87854 11.7022L5.8053 12.6778L5.81897 12.6641L7.45959 11.0225L7.48108 11L7.45959 10.9776L5.52209 9.04007L5.49963 9.01859L5.47815 9.04007ZM5.51819 7.00003L5.54065 7.02249L6.00842 7.49222L9.47815 10.96L9.49963 10.9815L9.52209 10.96L10.4596 10.0225L10.4811 10L10.4596 9.97757L6.52209 6.04007L6.49963 6.01859L5.51819 7.00003Z" fill="black" stroke="black" stroke-width="0.0625"/>
</svg>
