<svg width="16" height="16" viewBox="0 0 16 16" fill="none" xmlns="http://www.w3.org/2000/svg">
<path d="M2.5 12.7809H13.5C13.6905 12.7809 13.873 12.8572 14.0078 12.9919C14.1425 13.1266 14.2187 13.3092 14.2188 13.4997C14.2188 13.6903 14.1426 13.8737 14.0078 14.0085C13.8731 14.1431 13.6905 14.2184 13.5 14.2184H2.5C2.30953 14.2184 2.12695 14.1431 1.99219 14.0085C1.8574 13.8737 1.78125 13.6903 1.78125 13.4997C1.78133 13.3092 1.85747 13.1266 1.99219 12.9919C2.12696 12.8572 2.30945 12.7809 2.5 12.7809ZM8 1.28093C8.13637 1.28093 8.26962 1.32018 8.38477 1.39323C8.49995 1.46637 8.59235 1.57054 8.65039 1.69402L12.6504 10.194C12.7315 10.3665 12.7413 10.5644 12.6768 10.7438C12.6122 10.9231 12.4781 11.0689 12.3057 11.1501C12.1333 11.2311 11.9361 11.2409 11.7568 11.1764C11.5775 11.1119 11.4308 10.9787 11.3496 10.8063L10.376 8.73698L10.3672 8.71843H5.63281L5.62402 8.73698L4.65234 10.8063C4.6122 10.8919 4.5552 10.9683 4.48535 11.0319C4.41549 11.0955 4.33402 11.1454 4.24512 11.1774C4.15612 11.2094 4.06126 11.223 3.9668 11.2184C3.87234 11.2138 3.77981 11.1905 3.69434 11.1501C3.60905 11.11 3.53223 11.0537 3.46875 10.9841C3.40524 10.9143 3.35523 10.8326 3.32324 10.7438C3.29129 10.6551 3.27782 10.5607 3.28223 10.4665C3.28668 10.3722 3.30941 10.2794 3.34961 10.194L7.34961 1.69402C7.40765 1.57054 7.50005 1.46637 7.61523 1.39323C7.73038 1.32018 7.86363 1.28093 8 1.28093ZM7.97168 3.74773L6.33008 7.23698L6.30859 7.28093H9.69141L9.66992 7.23698L8.02832 3.74773L8 3.68816L7.97168 3.74773Z" fill="black" stroke="black" stroke-width="0.0625"/>
</svg>
