<svg width="16" height="16" viewBox="0 0 16 16" fill="none" xmlns="http://www.w3.org/2000/svg">
<path d="M2.5 7.28125H13.5C13.6906 7.28125 13.873 7.3574 14.0078 7.49219C14.1426 7.62698 14.2188 7.80938 14.2188 8C14.2188 8.19062 14.1426 8.37302 14.0078 8.50781C13.873 8.6426 13.6906 8.71875 13.5 8.71875H11.5479L11.5928 8.77051C12.0082 9.24934 12.2312 9.86525 12.2188 10.499V10.5C12.2188 11.3913 11.737 12.2492 10.8926 12.8525C10.1129 13.4108 9.08437 13.7188 8 13.7188C6.91563 13.7188 5.88706 13.4108 5.10742 12.8525C4.26299 12.2492 3.78125 11.3913 3.78125 10.5C3.78125 10.3094 3.8574 10.127 3.99219 9.99219C4.12698 9.8574 4.30938 9.78125 4.5 9.78125C4.69062 9.78125 4.87302 9.8574 5.00781 9.99219C5.1426 10.127 5.21875 10.3094 5.21875 10.5C5.21875 10.989 5.54296 11.4348 6.04883 11.7568C6.55557 12.0793 7.24943 12.2812 8 12.2812C8.75057 12.2812 9.44443 12.0793 9.95117 11.7568C10.457 11.4348 10.7812 10.989 10.7812 10.5C10.7812 10.0915 10.6315 9.76687 10.2754 9.48438C9.92164 9.20379 9.36435 8.96425 8.5498 8.71973L8.54102 8.75L8.5498 8.71875H2.5C2.30938 8.71875 2.12698 8.6426 1.99219 8.50781C1.8574 8.37302 1.78125 8.19062 1.78125 8C1.78125 7.80938 1.8574 7.62698 1.99219 7.49219C2.12698 7.3574 2.30938 7.28125 2.5 7.28125ZM8 2.28125C9.63118 2.28125 10.9864 2.9825 11.627 4.15137V4.15234C11.7079 4.31811 11.7216 4.50866 11.666 4.68457C11.6104 4.86042 11.4897 5.00864 11.3281 5.09766C11.1664 5.18666 10.9763 5.21014 10.7979 5.16309C10.664 5.1278 10.5445 5.05461 10.4521 4.9541L10.3691 4.84473C9.9794 4.13642 9.0909 3.71875 8 3.71875C7.26653 3.71875 6.62115 3.9079 6.1582 4.22461C5.69514 4.54147 5.41309 4.98742 5.41309 5.5C5.41309 5.69062 5.33694 5.87302 5.20215 6.00781C5.06736 6.14259 4.88495 6.21875 4.69434 6.21875C4.50373 6.21874 4.32131 6.14259 4.18652 6.00781C4.05174 5.87302 3.97559 5.69062 3.97559 5.5C3.97559 3.67024 5.69795 2.28125 8 2.28125Z" fill="black" stroke="black" stroke-width="0.0625"/>
</svg>
