<svg width="16" height="16" viewBox="0 0 16 16" fill="none" xmlns="http://www.w3.org/2000/svg">
<path d="M13.5306 8.53065L8.5306 13.5307C8.46083 13.6004 8.37801 13.6558 8.28686 13.6935C8.19571 13.7313 8.09801 13.7507 7.99935 13.7507C7.90069 13.7507 7.80299 13.7313 7.71184 13.6935C7.62069 13.6558 7.53786 13.6004 7.4681 13.5307C7.39833 13.4609 7.34299 13.3781 7.30524 13.2869C7.26748 13.1958 7.24805 13.0981 7.24805 12.9994C7.24805 12.9007 7.26748 12.803 7.30524 12.7119C7.34299 12.6207 7.39833 12.5379 7.4681 12.4682L12.4681 7.46815C12.5379 7.39839 12.6207 7.34304 12.7118 7.30529C12.803 7.26753 12.9007 7.2481 12.9993 7.2481C13.098 7.2481 13.1957 7.26753 13.2869 7.30529C13.378 7.34304 13.4608 7.39839 13.5306 7.46815C13.6004 7.53791 13.6557 7.62074 13.6935 7.71189C13.7312 7.80304 13.7506 7.90074 13.7506 7.9994C13.7506 8.09806 13.7312 8.19576 13.6935 8.28691C13.6557 8.37806 13.6004 8.46089 13.5306 8.53065ZM12.5306 1.96815C12.4609 1.89823 12.3781 1.84275 12.287 1.8049C12.1958 1.76704 12.0981 1.74756 11.9993 1.74756C11.9006 1.74756 11.8029 1.76704 11.7117 1.8049C11.6206 1.84275 11.5378 1.89823 11.4681 1.96815L1.9681 11.4682C1.8272 11.609 1.74805 11.8001 1.74805 11.9994C1.74805 12.1987 1.8272 12.3898 1.9681 12.5307C2.10899 12.6715 2.30009 12.7507 2.49935 12.7507C2.69861 12.7507 2.8897 12.6715 3.0306 12.5307L12.5306 3.03065C12.6003 2.961 12.6556 2.87828 12.6934 2.78723C12.7311 2.69618 12.7506 2.59859 12.7506 2.50003C12.7506 2.40146 12.7311 2.30387 12.6934 2.21282C12.6556 2.12177 12.6003 2.03905 12.5306 1.9694V1.96815Z" fill="black"/>
</svg>
