<svg width="20" height="20" viewBox="0 0 20 20" fill="none" xmlns="http://www.w3.org/2000/svg">
<path d="M2.5 5H17.5" stroke="black" stroke-linecap="round" stroke-linejoin="round"/>
<path d="M15.8334 5V16.6667C15.8334 17.5 15.0001 18.3333 14.1667 18.3333H5.83341C5.00008 18.3333 4.16675 17.5 4.16675 16.6667V5" fill="#1C1C1C" fill-opacity="0.1"/>
<path d="M15.8334 5V16.6667C15.8334 17.5 15.0001 18.3333 14.1667 18.3333H5.83341C5.00008 18.3333 4.16675 17.5 4.16675 16.6667V5" stroke="black" stroke-linecap="round" stroke-linejoin="round"/>
<path d="M6.66675 5.00001V3.33334C6.66675 2.50001 7.50008 1.66667 8.33341 1.66667H11.6667C12.5001 1.66667 13.3334 2.50001 13.3334 3.33334V5.00001" stroke="black" stroke-linecap="round" stroke-linejoin="round"/>
<path d="M8.33325 9.16667V14.1667" stroke="black" stroke-linecap="round" stroke-linejoin="round"/>
<path d="M11.6667 9.16667V14.1667" stroke="black" stroke-linecap="round" stroke-linejoin="round"/>
</svg>
