<svg width="16" height="16" viewBox="0 0 16 16" fill="none" xmlns="http://www.w3.org/2000/svg">
<path d="M4 13.2812H12C12.1906 13.2812 12.373 13.3574 12.5078 13.4922C12.6426 13.627 12.7188 13.8094 12.7188 14C12.7188 14.1906 12.6426 14.373 12.5078 14.5078C12.373 14.6426 12.1906 14.7188 12 14.7188H4C3.80938 14.7188 3.62698 14.6426 3.49219 14.5078C3.3574 14.373 3.28125 14.1906 3.28125 14C3.28125 13.8094 3.3574 13.627 3.49219 13.4922C3.62698 13.3574 3.80938 13.2812 4 13.2812ZM11.5 2.78125C11.6906 2.78125 11.873 2.8574 12.0078 2.99219C12.1426 3.12698 12.2188 3.30938 12.2188 3.5V8L12.2129 8.20898C12.1602 9.25138 11.723 10.2399 10.9814 10.9814C10.1905 11.7724 9.11853 12.2176 8 12.2188L7.79102 12.2129C6.74862 12.1602 5.76007 11.723 5.01855 10.9814C4.22764 10.1905 3.78241 9.11853 3.78125 8V3.5C3.78125 3.30938 3.8574 3.12698 3.99219 2.99219C4.12698 2.8574 4.30938 2.78125 4.5 2.78125C4.69062 2.78125 4.87302 2.8574 5.00781 2.99219C5.1426 3.12698 5.21875 3.30938 5.21875 3.5V8C5.21875 8.73763 5.51162 9.44521 6.0332 9.9668C6.55479 10.4884 7.26237 10.7812 8 10.7812C8.73763 10.7812 9.44521 10.4884 9.9668 9.9668C10.4884 9.44521 10.7812 8.73763 10.7812 8V3.5C10.7812 3.30938 10.8574 3.12698 10.9922 2.99219C11.127 2.8574 11.3094 2.78125 11.5 2.78125Z" fill="black" stroke="black" stroke-width="0.0625"/>
</svg>
